<svg xmlns="http://www.w3.org/2000/svg" viewBox="0 0 24 24" width="25px"><path d="M2.75 6h9.5a.25.25 0 0 1-.25-.25v17.5l.75-.75H2.25l.75.75V5.75a.25.25 0 0 1-.25.25m0-1.5c-.69 0-1.25.56-1.25 1.25v17.5c0 .414.336.75.75.75h10.5a.75.75 0 0 0 .75-.75V5.75c0-.69-.56-1.25-1.25-1.25zm3-1.5h3.5A.25.25 0 0 1 9 2.75v2.5l.75-.75h-4.5l.75.75v-2.5a.25.25 0 0 1-.25.25m0-1.5c-.69 0-1.25.56-1.25 1.25v2.5c0 .414.336.75.75.75h4.5a.75.75 0 0 0 .75-.75v-2.5c0-.69-.56-1.25-1.25-1.25zM5.25 9h4.5a.75.75 0 0 0 0-1.5h-4.5a.75.75 0 0 0 0 1.5m0 3h4.5a.75.75 0 0 0 0-1.5h-4.5a.75.75 0 0 0 0 1.5m0 3h4.5a.75.75 0 0 0 0-1.5h-4.5a.75.75 0 0 0 0 1.5m0 3h4.5a.75.75 0 0 0 0-1.5h-4.5a.75.75 0 0 0 0 1.5m0 3h4.5a.75.75 0 0 0 0-1.5h-4.5a.75.75 0 0 0 0 1.5M7.5.75v1.5a.75.75 0 0 0 1.5 0V.75a.75.75 0 0 0-1.5 0M15.75 24h6a.75.75 0 0 0 .75-.75V10.5A1.5 1.5 0 0 0 21 9h-4.5a1.5 1.5 0 0 0-1.5 1.5v12.75a.75.75 0 0 0 1.5 0V10.5H21v12.75l.75-.75h-6a.75.75 0 0 0 0 1.5M19.5 8.25v1.5a.75.75 0 0 0 1.5 0v-1.5a.75.75 0 0 0-1.5 0M.75 24h22.5a.75.75 0 0 0 0-1.5H.75a.75.75 0 0 0 0 1.5"></path></svg>